<?xml version="1.0" encoding="UTF-8" standalone="no"?>
<!-- Generator: Adobe Illustrator 15.1.0, SVG Export Plug-In  -->

<svg
   xmlns:a="http://ns.adobe.com/AdobeSVGViewerExtensions/3.0/"
   xmlns:dc="http://purl.org/dc/elements/1.1/"
   xmlns:cc="http://creativecommons.org/ns#"
   xmlns:rdf="http://www.w3.org/1999/02/22-rdf-syntax-ns#"
   xmlns:svg="http://www.w3.org/2000/svg"
   xmlns="http://www.w3.org/2000/svg"
   xmlns:xlink="http://www.w3.org/1999/xlink"
   xmlns:sodipodi="http://sodipodi.sourceforge.net/DTD/sodipodi-0.dtd"
   xmlns:inkscape="http://www.inkscape.org/namespaces/inkscape"
   version="1.1"
   x="0px"
   y="0px"
   width="24px"
   height="24px"
   viewBox="-2 0 24 24"
   style="overflow:visible;enable-background:new -2 0 24 24;"
   xml:space="preserve"
   preserveAspectRatio="xMinYMid meet"
   id="svg2"
   inkscape:version="0.48.4 r9939"
   sodipodi:docname="Thesis.svg"><metadata
   id="metadata81"><rdf:RDF><cc:Work
       rdf:about=""><dc:format>image/svg+xml</dc:format><dc:type
         rdf:resource="http://purl.org/dc/dcmitype/StillImage" /></cc:Work></rdf:RDF></metadata><sodipodi:namedview
   pagecolor="#ffffff"
   bordercolor="#666666"
   borderopacity="1"
   objecttolerance="10"
   gridtolerance="10"
   guidetolerance="10"
   inkscape:pageopacity="0"
   inkscape:pageshadow="2"
   inkscape:window-width="1440"
   inkscape:window-height="878"
   id="namedview79"
   showgrid="true"
   inkscape:zoom="19.666667"
   inkscape:cx="10.868541"
   inkscape:cy="11.546837"
   inkscape:window-x="-8"
   inkscape:window-y="-8"
   inkscape:window-maximized="1"
   inkscape:current-layer="svg2"><inkscape:grid
     type="xygrid"
     id="grid3093" /></sodipodi:namedview>
<defs
   id="defs4">
<linearGradient
   id="SVGID_6_-1"
   gradientUnits="userSpaceOnUse"
   x1="11.9673"
   y1="12.167"
   x2="11.9673"
   y2="23.8853"><stop
     offset="0"
     style="stop-color:#DDA976"
     id="stop54" /><stop
     offset="1"
     style="stop-color:#9F6B37"
     id="stop56-7" /><a:midPointStop
     offset="0"
     style="stop-color:#DDA976" /><a:midPointStop
     offset="0.5"
     style="stop-color:#DDA976" /><a:midPointStop
     offset="1"
     style="stop-color:#9F6B37" /></linearGradient><linearGradient
   id="SVGID_7_-4"
   gradientUnits="userSpaceOnUse"
   x1="11.4893"
   y1="13.2803"
   x2="11.4893"
   y2="22.933599"><stop
     offset="0"
     style="stop-color:#FFDDAA"
     id="stop61" /><stop
     offset="1"
     style="stop-color:#E3B17E"
     id="stop63" /><a:midPointStop
     offset="0"
     style="stop-color:#FFDDAA" /><a:midPointStop
     offset="0.5"
     style="stop-color:#FFDDAA" /><a:midPointStop
     offset="1"
     style="stop-color:#E3B17E" /></linearGradient><linearGradient
   id="SVGID_8_"
   gradientUnits="userSpaceOnUse"
   x1="7.5928001"
   y1="14.4141"
   x2="7.5928001"
   y2="21.933599"><stop
     offset="0"
     style="stop-color:#F1C592"
     id="stop68" /><stop
     offset="1"
     style="stop-color:#E1AF7C"
     id="stop70" /><a:midPointStop
     offset="0"
     style="stop-color:#F1C592" /><a:midPointStop
     offset="0.5"
     style="stop-color:#F1C592" /><a:midPointStop
     offset="1"
     style="stop-color:#E1AF7C" /></linearGradient><linearGradient
   y2="21.933599"
   x2="7.5928001"
   y1="14.4141"
   x1="7.5928001"
   gradientUnits="userSpaceOnUse"
   id="linearGradient3081"
   xlink:href="#SVGID_8_"
   inkscape:collect="always" /><linearGradient
   inkscape:collect="always"
   xlink:href="#SVGID_1_"
   id="linearGradient3871"
   gradientUnits="userSpaceOnUse"
   gradientTransform="matrix(0.79505888,0,0,0.79146342,4.4907274,0.83414631)"
   x1="12.0005"
   y1="4"
   x2="12.0005"
   y2="9" /></defs>
<linearGradient
   id="SVGID_1_"
   gradientUnits="userSpaceOnUse"
   x1="12.0005"
   y1="0"
   x2="12.0005"
   y2="24.0005"
   gradientTransform="matrix(0.8134856,0,0,0.83371006,4.7370161,0)">
	<stop
   offset="0"
   style="stop-color:#8d470d;stop-opacity:1;"
   id="stop7" />
	<stop
   offset="1"
   style="stop-color:#7c3d09;stop-opacity:1;"
   id="stop9" />
	<a:midPointStop
   offset="0"
   style="stop-color:#90C50E" />
	<a:midPointStop
   offset="0.5"
   style="stop-color:#90C50E" />
	<a:midPointStop
   offset="1"
   style="stop-color:#70A034" />
</linearGradient>
<rect
   x="7.9909587"
   style="fill:url(#SVGID_1_)"
   width="13.015771"
   height="20.009041"
   id="rect11"
   y="0" />
<linearGradient
   id="SVGID_2_"
   gradientUnits="userSpaceOnUse"
   x1="12.0005"
   y1="1"
   x2="12.0005"
   y2="23.0005"
   gradientTransform="matrix(0.85768604,0,0,0.81695849,3.7466474,0.18304151)">
	<stop
   offset="0"
   style="stop-color:#d58738;stop-opacity:1;"
   id="stop14" />
	
	
	
	
	<stop
   offset="1"
   style="stop-color:#ab551f;stop-opacity:1;"
   id="stop24" />
	<a:midPointStop
   offset="0"
   style="stop-color:#D9F991" />
	<a:midPointStop
   offset="0.7317"
   style="stop-color:#D9F991" />
	<a:midPointStop
   offset="1"
   style="stop-color:#A8D73D" />
</linearGradient>
<rect
   x="8.035078"
   y="1"
   style="fill:url(#SVGID_2_)"
   width="12.007606"
   height="17.973087"
   id="rect26" />
<linearGradient
   id="SVGID_3_"
   gradientUnits="userSpaceOnUse"
   x1="12.0005"
   y1="2"
   x2="12.0005"
   y2="22.0005"
   gradientTransform="matrix(0.83520814,0,0,0.79865434,3.9729813,0.40269132)">
	<stop
   offset="0"
   style="stop-color:#d0813a;stop-opacity:1;"
   id="stop29" />
	<stop
   offset="1"
   style="stop-color:#af551d;stop-opacity:1;"
   id="stop31" />
	<a:midPointStop
   offset="0"
   style="stop-color:#B3E810" />
	<a:midPointStop
   offset="0.5"
   style="stop-color:#B3E810" />
	<a:midPointStop
   offset="1"
   style="stop-color:#90C60D" />
</linearGradient>
<rect
   x="8.98423"
   y="2"
   style="fill:url(#SVGID_3_)"
   width="10.022498"
   height="15.973086"
   id="rect33" />
<linearGradient
   id="SVGID_4_"
   gradientUnits="userSpaceOnUse"
   x1="12.0005"
   y1="4"
   x2="12.0005"
   y2="9"
   gradientTransform="matrix(0.79505888,0,0,0.79146342,4.4907274,0.83414631)">
	<stop
   offset="0"
   style="stop-color:#90C50E"
   id="stop36" />
	<stop
   offset="1"
   style="stop-color:#70A034"
   id="stop38" />
	<a:midPointStop
   offset="0"
   style="stop-color:#90C50E" />
	<a:midPointStop
   offset="0.5"
   style="stop-color:#90C50E" />
	<a:midPointStop
   offset="1"
   style="stop-color:#70A034" />
</linearGradient>
<path
   style="fill:url(#linearGradient3871);fill-opacity:1"
   d="m 10.056139,4 0,3.9573171 7.950589,0 0,-3.9573171 z M 17,7 11,7 11,5 17,5 z"
   id="path40"
   inkscape:connector-curvature="0"
   sodipodi:nodetypes="cccccccccc" />
<linearGradient
   id="SVGID_5_"
   gradientUnits="userSpaceOnUse"
   x1="2.5"
   y1="0"
   x2="2.5"
   y2="24.0005"
   gradientTransform="matrix(0.80677966,0,0,0.83520817,3.9862866,0)">
	<stop
   offset="0"
   style="stop-color:#656565"
   id="stop43" />
	<stop
   offset="1.342887e-02"
   style="stop-color:#646464"
   id="stop45" />
	<stop
   offset="0.4453"
   style="stop-color:#3C3C3C"
   id="stop47" />
	<stop
   offset="0.7891"
   style="stop-color:#242424"
   id="stop49" />
	<stop
   offset="1"
   style="stop-color:#1B1B1B"
   id="stop51" />
	<a:midPointStop
   offset="0"
   style="stop-color:#656565" />
	<a:midPointStop
   offset="0.4"
   style="stop-color:#656565" />
	<a:midPointStop
   offset="1"
   style="stop-color:#1B1B1B" />
</linearGradient>
<path
   style="fill:url(#SVGID_5_)"
   d="M 7.2134052,0 H 6.0839137 4.7930663 C 4.3896764,0 3.9862866,0.41760408 3.9862866,0.83520817 V 19.209788 c 0,0.417604 0.4033898,0.835208 0.8067797,0.835208 H 6.0839137 7.2134052 8.0201849 V 19.209788 0.83520817 0 H 7.2134052 z"
   id="path53"
   inkscape:connector-curvature="0" />
<linearGradient
   id="SVGID_6_"
   gradientUnits="userSpaceOnUse"
   x1="2.5"
   y1="1"
   x2="2.5"
   y2="23.0005"
   gradientTransform="matrix(0.6440678,0,0,0.77283241,4.3930663,0.22716759)">
	<stop
   offset="0"
   style="stop-color:#8E8E8E"
   id="stop56" />
	<stop
   offset="4.191053e-02"
   style="stop-color:#8A8A8A"
   id="stop58" />
	<stop
   offset="0.4613"
   style="stop-color:#626262"
   id="stop60" />
	<stop
   offset="0.7952"
   style="stop-color:#4A4A4A"
   id="stop62" />
	<stop
   offset="1"
   style="stop-color:#414141"
   id="stop64" />
	<a:midPointStop
   offset="0"
   style="stop-color:#8E8E8E" />
	<a:midPointStop
   offset="0.4"
   style="stop-color:#8E8E8E" />
	<a:midPointStop
   offset="1"
   style="stop-color:#414141" />
</linearGradient>
<rect
   x="5.0371342"
   y="1"
   style="fill:url(#SVGID_6_)"
   width="1.9322034"
   height="17.002314"
   id="rect66" />
<linearGradient
   id="SVGID_7_"
   gradientUnits="userSpaceOnUse"
   x1="2.5"
   y1="2"
   x2="2.5"
   y2="22.0005"
   gradientTransform="matrix(1,0,0,0.75011565,4.0371341,0.49976869)">
	<stop
   offset="0"
   style="stop-color:#7C7C7C"
   id="stop69" />
	<stop
   offset="0.3898"
   style="stop-color:#5C5C5C"
   id="stop71" />
	<stop
   offset="0.768"
   style="stop-color:#444444"
   id="stop73" />
	<stop
   offset="1"
   style="stop-color:#3B3B3B"
   id="stop75" />
	<a:midPointStop
   offset="0"
   style="stop-color:#7C7C7C" />
	<a:midPointStop
   offset="0.4"
   style="stop-color:#7C7C7C" />
	<a:midPointStop
   offset="1"
   style="stop-color:#3B3B3B" />
</linearGradient>
<rect
   x="6.0371342"
   y="2"
   style="fill:url(#SVGID_7_)"
   width="1"
   height="15.002313"
   id="rect77" />
<g
   transform="translate(-1.8511869,0.25278939)"
   style="overflow:visible"
   id="g3053"><path
     inkscape:connector-curvature="0"
     id="path58"
     d="m 10,18.9 c -0.3,-2.2 9.4,0.5 9.3,-1.4 0,-0.8 -8.4,-3.4 -11.4,-4.1 C 7,13.2 1.4,12.2 1.4,12.2 1.2,12.3 0.1,15.5 0,17.4 0.5,17.7 7.3,24.1 10,23.9 12.7,23.7 24.2,20.3 23.9,19.2 23.3,17.1 10.3,21.3 10,18.9 z"
     style="fill:url(#SVGID_6_-1)" /><path
     inkscape:connector-curvature="0"
     id="path65"
     d="M 1.7,17.4 C 1.4,17.2 1.2,17 1,16.9 c 0.1,-1.2 0.6,-2.8 0.9,-3.6 1.8,0.3 5.1,0.9 5.7,1 2.6,0.6 9.4,2.3 9.7,3 0.5,1.1 -8.3,-1.9 -8.1,1.7 0.2,3.5 12.4,-0.6 12.7,0.5 0.2,0.7 -10.1,3.6 -12,3.5 -2,-0.2 -6.6,-4.2 -8.2,-5.6 z"
     style="fill:url(#SVGID_7_-4)" /><path
     inkscape:connector-curvature="0"
     id="path72"
     d="M 10.1,21.9 C 9.3,21.8 7.3,20.9 2.5,16.7 L 2.2,16.4 c 0.1,-0.7 0.3,-1.4 0.5,-2.1 2.1,0.4 4.3,0.8 4.7,0.9 1.5,0.4 2.7,0.7 3.8,0.9 -1,0.1 -1.8,0.4 -2.3,1 -0.3,0.3 -0.7,0.9 -0.6,1.9 0.1,1.1 0.8,2.4 4,2.4 0.3,0 0.6,0 0.9,0 -1.4,0.3 -2.5,0.5 -3.1,0.5 l 0,0 z"
     style="fill:url(#linearGradient3081)" /></g></svg>